<mxfile host="app.diagrams.net" modified="2022-09-16T09:18:56.476Z" agent="5.0 (Windows NT 10.0; Win64; x64) AppleWebKit/537.36 (KHTML, like Gecko) Chrome/105.0.0.0 Safari/537.36" etag="mIgrzThi9WkjCLkwF9zm" version="20.3.1" type="github">
  <diagram id="y8RgMXlmg_gge-7AhZ-_" name="Page-1">
    <mxGraphModel dx="1022" dy="468" grid="1" gridSize="10" guides="1" tooltips="1" connect="1" arrows="1" fold="1" page="1" pageScale="1" pageWidth="827" pageHeight="1169" math="0" shadow="0">
      <root>
        <mxCell id="0" />
        <mxCell id="1" parent="0" />
        <mxCell id="BDUe3Jq0V9347dnS5RK9-30" value="" style="rounded=0;whiteSpace=wrap;html=1;fillColor=#ffe6cc;strokeColor=#d79b00;" vertex="1" parent="1">
          <mxGeometry x="100" y="110" width="500" height="320" as="geometry" />
        </mxCell>
        <mxCell id="BDUe3Jq0V9347dnS5RK9-7" style="edgeStyle=orthogonalEdgeStyle;rounded=0;orthogonalLoop=1;jettySize=auto;html=1;" edge="1" parent="1" source="BDUe3Jq0V9347dnS5RK9-4" target="BDUe3Jq0V9347dnS5RK9-5">
          <mxGeometry relative="1" as="geometry">
            <Array as="points">
              <mxPoint x="310" y="340" />
            </Array>
          </mxGeometry>
        </mxCell>
        <mxCell id="BDUe3Jq0V9347dnS5RK9-3" value="" style="rounded=0;whiteSpace=wrap;html=1;fillColor=#d5e8d4;strokeColor=#82b366;" vertex="1" parent="1">
          <mxGeometry x="145" y="160" width="330" height="240" as="geometry" />
        </mxCell>
        <mxCell id="BDUe3Jq0V9347dnS5RK9-8" style="edgeStyle=orthogonalEdgeStyle;rounded=0;orthogonalLoop=1;jettySize=auto;html=1;fillColor=#e51400;strokeColor=#B20000;" edge="1" parent="1" source="BDUe3Jq0V9347dnS5RK9-4" target="BDUe3Jq0V9347dnS5RK9-6">
          <mxGeometry relative="1" as="geometry">
            <Array as="points">
              <mxPoint x="310" y="340" />
            </Array>
          </mxGeometry>
        </mxCell>
        <mxCell id="BDUe3Jq0V9347dnS5RK9-16" style="edgeStyle=orthogonalEdgeStyle;rounded=0;orthogonalLoop=1;jettySize=auto;html=1;fillColor=#e51400;strokeColor=#B20000;" edge="1" parent="1" source="BDUe3Jq0V9347dnS5RK9-4" target="BDUe3Jq0V9347dnS5RK9-5">
          <mxGeometry relative="1" as="geometry">
            <Array as="points">
              <mxPoint x="300" y="340" />
            </Array>
          </mxGeometry>
        </mxCell>
        <mxCell id="BDUe3Jq0V9347dnS5RK9-4" value="API Server" style="ellipse;whiteSpace=wrap;html=1;aspect=fixed;" vertex="1" parent="1">
          <mxGeometry x="270" y="170" width="80" height="80" as="geometry" />
        </mxCell>
        <mxCell id="BDUe3Jq0V9347dnS5RK9-5" value="Control Manager" style="ellipse;whiteSpace=wrap;html=1;aspect=fixed;" vertex="1" parent="1">
          <mxGeometry x="180" y="300" width="80" height="80" as="geometry" />
        </mxCell>
        <mxCell id="BDUe3Jq0V9347dnS5RK9-6" value="Scheduler" style="ellipse;whiteSpace=wrap;html=1;aspect=fixed;" vertex="1" parent="1">
          <mxGeometry x="390" y="300" width="80" height="80" as="geometry" />
        </mxCell>
        <mxCell id="BDUe3Jq0V9347dnS5RK9-12" style="edgeStyle=orthogonalEdgeStyle;rounded=0;orthogonalLoop=1;jettySize=auto;html=1;fillColor=#e51400;strokeColor=#B20000;" edge="1" parent="1" source="BDUe3Jq0V9347dnS5RK9-9">
          <mxGeometry relative="1" as="geometry">
            <mxPoint x="260" y="220" as="targetPoint" />
          </mxGeometry>
        </mxCell>
        <mxCell id="BDUe3Jq0V9347dnS5RK9-9" value="User" style="shape=umlActor;verticalLabelPosition=bottom;verticalAlign=top;html=1;outlineConnect=0;" vertex="1" parent="1">
          <mxGeometry x="20" y="190" width="30" height="60" as="geometry" />
        </mxCell>
        <mxCell id="BDUe3Jq0V9347dnS5RK9-15" value="kubectl -f create deployment.yml" style="rounded=1;whiteSpace=wrap;html=1;" vertex="1" parent="1">
          <mxGeometry x="50" y="230" width="200" height="20" as="geometry" />
        </mxCell>
        <mxCell id="BDUe3Jq0V9347dnS5RK9-17" value="Node 1" style="rounded=0;whiteSpace=wrap;html=1;" vertex="1" parent="1">
          <mxGeometry x="520" y="170" width="60" height="60" as="geometry" />
        </mxCell>
        <mxCell id="BDUe3Jq0V9347dnS5RK9-18" value="Node 2" style="rounded=0;whiteSpace=wrap;html=1;" vertex="1" parent="1">
          <mxGeometry x="520" y="240" width="60" height="60" as="geometry" />
        </mxCell>
        <mxCell id="BDUe3Jq0V9347dnS5RK9-19" value="Node 3" style="rounded=0;whiteSpace=wrap;html=1;" vertex="1" parent="1">
          <mxGeometry x="520" y="320" width="60" height="60" as="geometry" />
        </mxCell>
        <mxCell id="BDUe3Jq0V9347dnS5RK9-26" value="" style="endArrow=classic;html=1;rounded=0;entryX=0;entryY=0.75;entryDx=0;entryDy=0;exitX=1;exitY=0.5;exitDx=0;exitDy=0;fillColor=#e51400;strokeColor=#B20000;" edge="1" parent="1" source="BDUe3Jq0V9347dnS5RK9-4" target="BDUe3Jq0V9347dnS5RK9-17">
          <mxGeometry width="50" height="50" relative="1" as="geometry">
            <mxPoint x="380" y="250" as="sourcePoint" />
            <mxPoint x="430" y="200" as="targetPoint" />
          </mxGeometry>
        </mxCell>
        <mxCell id="BDUe3Jq0V9347dnS5RK9-27" value="" style="endArrow=classic;html=1;rounded=0;entryX=0;entryY=0.5;entryDx=0;entryDy=0;fillColor=#e51400;strokeColor=#B20000;" edge="1" parent="1" source="BDUe3Jq0V9347dnS5RK9-4" target="BDUe3Jq0V9347dnS5RK9-18">
          <mxGeometry width="50" height="50" relative="1" as="geometry">
            <mxPoint x="380" y="250" as="sourcePoint" />
            <mxPoint x="430" y="200" as="targetPoint" />
          </mxGeometry>
        </mxCell>
        <mxCell id="BDUe3Jq0V9347dnS5RK9-28" value="" style="endArrow=classic;html=1;rounded=0;entryX=-0.022;entryY=0.367;entryDx=0;entryDy=0;entryPerimeter=0;fillColor=#e51400;strokeColor=#B20000;" edge="1" parent="1" source="BDUe3Jq0V9347dnS5RK9-4" target="BDUe3Jq0V9347dnS5RK9-19">
          <mxGeometry width="50" height="50" relative="1" as="geometry">
            <mxPoint x="380" y="250" as="sourcePoint" />
            <mxPoint x="430" y="200" as="targetPoint" />
          </mxGeometry>
        </mxCell>
        <mxCell id="BDUe3Jq0V9347dnS5RK9-31" value="&lt;h1&gt;&lt;font style=&quot;font-size: 15px;&quot; face=&quot;Times New Roman&quot;&gt;What we think&lt;/font&gt;&lt;/h1&gt;" style="text;html=1;strokeColor=none;fillColor=none;align=center;verticalAlign=middle;whiteSpace=wrap;rounded=0;" vertex="1" parent="1">
          <mxGeometry x="100" y="60" width="100" height="30" as="geometry" />
        </mxCell>
      </root>
    </mxGraphModel>
  </diagram>
</mxfile>
